<?xml version="1.0" encoding="utf-8"?>
<!-- Generator: Adobe Illustrator 15.1.0, SVG Export Plug-In . SVG Version: 6.00 Build 0)  -->
<!DOCTYPE svg PUBLIC "-//W3C//DTD SVG 1.1//EN" "http://www.w3.org/Graphics/SVG/1.1/DTD/svg11.dtd">
<svg version="1.1"
	 id="svg2" sodipodi:docname="pump.svg" inkscape:version="0.48.1 " xmlns:inkscape="http://www.inkscape.org/namespaces/inkscape" xmlns:sodipodi="http://sodipodi.sourceforge.net/DTD/sodipodi-0.dtd" xmlns:rdf="http://www.w3.org/1999/02/22-rdf-syntax-ns#" xmlns:svg="http://www.w3.org/2000/svg" xmlns:cc="http://creativecommons.org/ns#" xmlns:dc="http://purl.org/dc/elements/1.1/"
	 xmlns="http://www.w3.org/2000/svg" xmlns:xlink="http://www.w3.org/1999/xlink" x="0px" y="0px" width="1000px" height="1000px"
	 viewBox="-383.453 282.681 1000 1000" enable-background="new -383.453 282.681 1000 1000" xml:space="preserve">
<sodipodi:namedview  pagecolor="#ffffff" bordercolor="#666666" id="base" borderopacity="1.0" inkscape:pageopacity="0.0" inkscape:zoom="0.04" inkscape:pageshadow="2" inkscape:cx="897.03115" inkscape:cy="171.31898" inkscape:document-units="px" inkscape:current-layer="layer1" showgrid="false" inkscape:window-width="678" inkscape:window-height="455" inkscape:window-x="961" inkscape:window-y="428" inkscape:window-maximized="0">
	</sodipodi:namedview>
<g id="layer2" inkscape:groupmode="layer" inkscape:label="guide" display="none">
	
		<path id="path3066" inkscape:connector-curvature="0" sodipodi:nodetypes="cssscccssssssssccscsssscccccsccccccssssssscsscssssssssscssssssccsscssssccccccccc" display="inline" fill="#CCCCCC" d="
		M63.468,972.623c-4.209-4.209-7.654-187.045-7.654-406.299c0-493.992-17.008-452.853,187.215-452.853
		c196.254,0,191.655-4.727,191.655,196.955v153.212h44.65c137.693,11.604,101,195.844,101.59,236.485
		c2.791,196.857,10.475,231.686,43.77,198.393c15.857-15.857,15.236-30.842-6.172-148.76
		c-17.898-98.592-21.926-153.203-16.232-220.104c7.105-83.491,6.174-88.976-15.094-88.976c-39.322,0-60.666-36.451-60.666-103.604
		c0-51.417-5.17-67.01-31.25-94.231c-24.965-26.057-28.758-36.576-18.861-52.292c22.891-36.348,45.176-26.625,122.465,53.431
		l76.898,79.654l0.08,153.238c0.049,100.616,7.91,198.577,22.887,285.268c12.545,72.617,22.844,135.508,22.885,139.76
		c0.049,4.252-13.299,23.625-29.646,43.053c-25.002,29.715-37.85,42.395-80.889,42.395c-39.016,0-57.855-13.762-79.346-35.25
		c-27.648-27.65-28.18-31.764-28.18-218.137V544.003h-34.443h-34.441V762.14v218.137H252.907c-99.979,0-185.225-3.443-189.435-7.654
		H63.468z M414.344,736.308l3.117-221.006h51.664h51.664l5.74,199.09c5.537,192.057,6.699,199.863,32.844,221.006
		c35.053,28.344,71.303,27.818,102.762-1.492c29.736-27.703,30.723-48.652,7.908-167.885
		c-9.59-50.115-17.221-153.609-17.223-233.574c0-78.972-5.109-161.398-11.354-183.168
		c-10.973-38.262-108.385-149.701-130.857-149.701c-6.074,0,0.189,11.958,13.92,26.572c18.887,20.105,25.24,41.759,26.107,88.977
		c0.816,44.574,3.42,54.221,9.113,33.763c15.377-55.266,69.529-39.475,69.932,20.391c0.219,32.437-27.887,44.752-54.504,23.886
		c-18.045-14.146-18.443-13.721-4.189,4.456c8.666,11.051,25.457,20.092,37.312,20.092c19.709,0,21.557,10.253,21.557,119.54
		c0,65.746,7.748,160.033,17.219,209.525c29.014,151.613,21.311,187.574-40.18,187.574c-53.791,0-57.404-13.838-57.404-219.781
		c0-185.629-0.877-192.841-25.518-210.1c-14.033-9.83-45.031-17.872-68.885-17.872h-43.369V339.902
		c0-201.242,2.957-197.729-166.472-197.729c-122.076,0-131.911,1.689-148.601,25.517c-15.292,21.831-17.872,79.738-17.872,400.988
		c0,347.939,1.473,375.857,20.091,380.723c11.05,2.889,85.852,5.852,166.225,6.584l146.133,1.33L414.344,736.308z M118.123,390.974
		c-3.22-8.393-4.35-61.349-2.51-117.679l3.346-102.419l120.388-3.302c144.281-3.957,149.49-0.057,149.255,111.694
		c-0.275,132.218,5.488,126.966-139.312,126.966C155.653,406.233,122.499,402.376,118.123,390.974z M354.317,291.424v-91.847
		H245.249H136.181v91.847v91.847h109.068h109.068V291.424z"/>
</g>
<g id="layer1" inkscape:groupmode="layer" inkscape:label="Pump">
	<path id="path2997" fill="#FFFFFF" d="M-88.315,393.627c-21.086,0-40.06,14.179-40.06,41.418v704.137h316.347v-388.87h76.044
		c0,0,6.696,309.692,6.265,309.692c-0.428,0-3.122,77.969,75.741,79.76c33.974,0.773,50.674-10.653,62.211-21.208
		c15.242-13.943,22.168-23.447,22.924-46.907c1.236-38.136-18.824-86.933-29.578-272.434
		c-10.686-184.306-8.039-226.719-8.039-226.719c-31.072-31.236-100.692-129.535-133.543-127.249
		c-17.922,3.584-21.503,17.93-14.332,26.892c7.169,8.961,36.458,15.145,38.535,63.623c2.688,62.73,10.741,97.663,23.288,112.001
		c12.544,14.338,30.47,14.342,41.224,16.135c10.753,1.793,12.567,17.923,8.981,66.315c-3.584,48.392,2.674,155.044,15.22,219.564
		c12.549,64.523,29.574,134.438-19.71,149.649c-43.301,13.366-42.131-83.33-40.338-241.05c3.881-68.5-1.022-107.549-21.735-128.829
		c-19.536-20.071-43.965-28.828-103.712-27.115V432.189c-1.113-25.365-12.585-38.667-39.062-38.119l-133.736-0.443H-88.315z
		 M-73.761,445.497h212.914v183.748H-73.761V445.497z M326.034,567.45c0.443,0.003,0.875,0.031,1.331,0.056
		c22.416,1.195,30.912,10.789,34.238,32.936c3.012,20.074-5.72,31.675-29.166,34.21c-27.295,2.95-39.284-24.064-39.284-24.064
		S298.089,567.32,326.034,567.45z"/>
</g>
</svg>
